<svg width="15" height="15" viewBox="0 0 15 15" fill="none" xmlns="http://www.w3.org/2000/svg">
<path d="M14.5318 7.66166C14.5318 7.18868 14.4899 6.73964 14.418 6.30258H7.65259V9.00278H11.5263C11.3526 9.88887 10.8437 10.6373 10.0893 11.1462V12.9423H12.4004C13.7535 11.691 14.5318 9.84696 14.5318 7.66166Z" fill="#4285F4"/>
<path d="M7.65269 14.6846C9.59251 14.6846 11.215 14.0379 12.4005 12.9423L10.0894 11.1462C9.44284 11.5772 8.6226 11.8407 7.65269 11.8407C5.77872 11.8407 4.19213 10.5774 3.62335 8.87106H1.24048V10.7211C2.41994 13.068 4.84473 14.6846 7.65269 14.6846Z" fill="#34A853"/>
<path d="M3.62323 8.87105C3.47355 8.43998 3.39572 7.97897 3.39572 7.5C3.39572 7.02103 3.47954 6.56002 3.62323 6.12895V4.27893H1.24036C0.749412 5.24884 0.468018 6.3385 0.468018 7.5C0.468018 8.6615 0.749412 9.75116 1.24036 10.7211L3.62323 8.87105Z" fill="#FBBC05"/>
<path d="M7.65269 3.15934C8.71241 3.15934 9.65837 3.52456 10.4068 4.23703L12.4544 2.18943C11.215 1.02793 9.59252 0.31546 7.65269 0.31546C4.84473 0.31546 2.41994 1.93199 1.24048 4.27894L3.62335 6.12896C4.19213 4.42263 5.77872 3.15934 7.65269 3.15934Z" fill="#EA4335"/>
</svg>
