<svg width="327" height="14" viewBox="0 0 327 14" fill="none" xmlns="http://www.w3.org/2000/svg">
<line y1="7.5" x2="147" y2="7.5" stroke="#FC4C69"/>
<line x1="180" y1="7.5" x2="327" y2="7.5" stroke="#FC4C69"/>
<path d="M161.841 11.144C161.233 11.144 160.689 11.012 160.209 10.748C159.737 10.476 159.365 10.104 159.093 9.632C158.829 9.16 158.697 8.616 158.697 8C158.697 7.384 158.829 6.84 159.093 6.368C159.357 5.896 159.725 5.528 160.197 5.264C160.669 4.992 161.209 4.856 161.817 4.856C162.433 4.856 162.977 4.992 163.449 5.264C163.921 5.528 164.289 5.896 164.553 6.368C164.817 6.84 164.949 7.384 164.949 8C164.949 8.616 164.817 9.16 164.553 9.632C164.289 10.104 163.921 10.476 163.449 10.748C162.985 11.012 162.449 11.144 161.841 11.144ZM161.841 9.68C162.137 9.68 162.397 9.608 162.621 9.464C162.845 9.32 163.017 9.124 163.137 8.876C163.265 8.62 163.329 8.328 163.329 8C163.329 7.672 163.265 7.384 163.137 7.136C163.009 6.88 162.829 6.68 162.597 6.536C162.373 6.392 162.113 6.32 161.817 6.32C161.529 6.32 161.269 6.392 161.037 6.536C160.813 6.68 160.637 6.88 160.509 7.136C160.381 7.384 160.317 7.672 160.317 8C160.317 8.328 160.381 8.62 160.509 8.876C160.637 9.124 160.817 9.32 161.049 9.464C161.281 9.608 161.545 9.68 161.841 9.68ZM167.11 7.844C167.11 7.196 167.234 6.66 167.482 6.236C167.738 5.812 168.062 5.496 168.454 5.288C168.854 5.08 169.27 4.976 169.702 4.976V6.512C169.334 6.512 168.986 6.556 168.658 6.644C168.338 6.732 168.078 6.876 167.878 7.076C167.678 7.276 167.578 7.532 167.578 7.844H167.11ZM165.994 11V5H167.578V11H165.994Z" fill="#65605F"/>
</svg>
