<svg width="175" height="55" viewBox="0 0 175 55" fill="none" xmlns="http://www.w3.org/2000/svg">
<path d="M27.4812 13.2389L54.9977 29.0833V15.862L27.4636 0L0 15.8796V29.1185L27.4812 13.2389Z" fill="#FC4C69"/>
<path d="M50.5964 45.0157L54.9977 42.4278V34.3119L27.4636 18.4323L0 34.3119V42.463L4.40122 45.0157L27.4636 31.6712L50.5964 45.0157Z" fill="#FC4C69"/>
<path d="M27.4811 50.438L34.4703 54.4695L45.9487 47.8677L27.4635 37.1991L9.04883 47.8677L20.5272 54.4695L27.4811 50.438Z" fill="#FC4C69"/>
<path d="M74.9978 32.6058L76.9709 29.975C77.578 30.3966 78.2863 30.7507 79.0958 31.0374C79.9053 31.3241 80.6979 31.4674 81.4736 31.4674C82.047 31.4674 82.5234 31.3494 82.9029 31.1133C83.2823 30.8772 83.472 30.5821 83.472 30.2279C83.472 29.8738 83.257 29.625 82.827 29.4817C82.3969 29.3383 81.9795 29.2372 81.5748 29.1781C81.1701 29.1191 80.9087 29.0812 80.7906 29.0643C79.7788 28.8957 78.9061 28.6933 78.1725 28.4572C77.4389 28.2211 76.7728 27.7995 76.1741 27.1924C75.5754 26.5853 75.2761 25.7505 75.2761 24.6881C75.2761 22.9342 75.9127 21.7621 77.1859 21.1719C78.4592 20.5817 79.7366 20.2865 81.0183 20.2865C82.1145 20.2865 83.1263 20.4467 84.0538 20.7672C84.9814 21.0876 85.9005 21.5935 86.8111 22.2849L84.838 24.8651C84.1803 24.4773 83.531 24.1653 82.8902 23.9292C82.2494 23.6931 81.5832 23.575 80.8918 23.575C80.4702 23.575 80.0613 23.6678 79.6649 23.8533C79.2686 24.0388 79.0705 24.2918 79.0705 24.6122C79.0705 25.0169 79.3445 25.3036 79.8926 25.4722C80.4407 25.6409 81.0436 25.7674 81.7013 25.8517C82.8818 26.0541 83.8262 26.2649 84.5345 26.4841C85.2428 26.7033 85.8709 27.1123 86.419 27.711C86.9671 28.3096 87.2411 29.1571 87.2411 30.2532C87.2411 31.7035 86.7437 32.8208 85.7487 33.605C84.7537 34.3891 83.3455 34.7812 81.5242 34.7812C78.9946 34.7812 76.8191 34.0561 74.9978 32.6058ZM93.7929 18.4779C93.3881 18.8742 92.8991 19.0723 92.3257 19.0723C91.7354 19.0723 91.2337 18.8742 90.8206 18.4779C90.4074 18.0816 90.2008 17.5967 90.2008 17.0233C90.2008 16.4668 90.4074 15.9904 90.8206 15.5941C91.2337 15.1978 91.7354 14.9996 92.3257 14.9996C92.8991 14.9996 93.3881 15.1978 93.7929 15.5941C94.1976 15.9904 94.4 16.4668 94.4 17.0233C94.4 17.5967 94.1976 18.0816 93.7929 18.4779ZM90.4285 20.5648H94.2229V34.4524H90.4285V20.5648ZM110.4 37.9559C109.16 39.1111 107.436 39.6887 105.227 39.6887C102.579 39.6887 100.361 38.9888 98.5738 37.5891L100.42 34.9077C100.994 35.3631 101.673 35.7341 102.457 36.0207C103.241 36.3074 104.072 36.4508 104.948 36.4508C107.326 36.4508 108.515 35.3715 108.515 33.2129V32.9852C107.503 33.8116 106.205 34.2247 104.62 34.2247C103.152 34.2247 101.862 33.917 100.749 33.3014C99.6363 32.6859 98.7846 31.8469 98.1944 30.7844C97.6041 29.722 97.309 28.5499 97.309 27.2683C97.309 25.9697 97.6041 24.7935 98.1944 23.7395C98.7846 22.6855 99.6321 21.8465 100.737 21.2225C101.841 20.5985 103.136 20.2865 104.62 20.2865C106.205 20.2865 107.503 20.6997 108.515 21.526V20.5395H112.259V33.2129C112.259 35.2197 111.639 36.8007 110.4 37.9559ZM106.782 30.5441C107.364 30.2153 107.824 29.7599 108.161 29.1781C108.498 28.5963 108.667 27.9597 108.667 27.2683C108.667 26.56 108.498 25.9191 108.161 25.3458C107.824 24.7724 107.364 24.3213 106.782 23.9924C106.201 23.6636 105.556 23.4991 104.847 23.4991C103.701 23.4991 102.777 23.8575 102.077 24.5742C101.377 25.291 101.028 26.189 101.028 27.2683C101.028 28.3813 101.369 29.2878 102.052 29.9876C102.735 30.6875 103.667 31.0374 104.847 31.0374C105.556 31.0374 106.201 30.873 106.782 30.5441ZM127.652 21.8296C128.52 22.8583 128.955 24.3255 128.955 26.2311V34.4524H125.084V26.2311C125.084 24.3592 124.19 23.4233 122.403 23.4233C121.711 23.4233 121.087 23.6973 120.531 24.2454C119.974 24.7935 119.713 25.7421 119.747 27.0912V34.4524H115.978V20.5395H119.747V21.779C120.202 21.3237 120.775 20.9611 121.467 20.6913C122.158 20.4214 122.824 20.2865 123.465 20.2865C125.388 20.2865 126.783 20.8009 127.652 21.8296ZM132.117 28.8872V25.447H140.161V28.8872H132.117ZM143.373 28.8113V20.5901H147.193V28.8113C147.193 29.8063 147.442 30.5188 147.939 30.9489C148.437 31.3789 149.09 31.5939 149.9 31.5939C150.608 31.5939 151.24 31.3199 151.797 30.7718C152.354 30.2237 152.606 29.2835 152.556 27.9513V20.5901H156.35V34.4524H152.556V33.2635C152.101 33.7357 151.548 34.1025 150.899 34.3639C150.25 34.6252 149.562 34.7559 148.837 34.7559C145.195 34.7559 143.373 32.7744 143.373 28.8113ZM163.787 21.9308C164.108 21.4923 164.66 21.1002 165.444 20.7545C166.228 20.4088 167.084 20.2359 168.012 20.2359C169.445 20.2359 170.689 20.5564 171.743 21.1972C172.797 21.838 173.602 22.7107 174.159 23.8153C174.715 24.9199 174.994 26.1468 174.994 27.4959C174.994 28.8451 174.715 30.0719 174.159 31.1765C173.602 32.2811 172.797 33.1539 171.743 33.7947C170.689 34.4355 169.445 34.7559 168.012 34.7559C167.051 34.7559 166.203 34.5915 165.47 34.2627C164.736 33.9338 164.175 33.5164 163.787 33.0105V38.9298H160.044V20.5395H163.787V21.9308ZM164.673 30.3418C165.364 31.0753 166.292 31.4421 167.455 31.4421C168.636 31.4421 169.568 31.0753 170.251 30.3418C170.934 29.6082 171.275 28.6596 171.275 27.4959C171.275 26.366 170.925 25.4301 170.225 24.6881C169.525 23.946 168.602 23.575 167.455 23.575C166.275 23.575 165.343 23.925 164.66 24.6248C163.977 25.3247 163.636 26.2817 163.636 27.4959C163.636 28.6596 163.981 29.6082 164.673 30.3418Z" fill="#65605F"/>
</svg>
