<svg width="375" height="126" viewBox="0 0 375 126" fill="none" xmlns="http://www.w3.org/2000/svg">
<g clip-path="url(#clip0_5_188)">
<path opacity="0.25" d="M-705 125.616V77.1594C-657.21 53.9205 -601.41 43.4839 -547 47.8491C-476.64 53.4704 -410.67 82.7179 -340.2 87.104C-266.36 91.6681 -192.66 69.4341 -122 50.1939C-52.73 31.3516 16.3 24.1496 87.4 36.5018C123.55 42.7826 157.25 55.1767 191.85 67.2149C284.49 99.4458 408 140.574 495 70.6902V125.616H-705Z" fill="#FC4C69"/>
<path opacity="0.5" d="M-705 125.616V109.066C-692 86.9679 -677.36 66.0948 -657.31 50.1939C-605.59 9.1385 -540 9.42114 -480.42 29.75C-449.27 40.375 -420.33 57.04 -390.75 71.4125C-349.83 91.3017 -306.02 119.565 -259.92 123.407C-223.66 126.39 -189.02 113.546 -161.32 90.37C-129.55 63.7918 -99 25.4686 -57.69 13.9538C-17.25 2.65884 23.66 20.9569 61.44 39.37C99.22 57.7832 136.6 80.1952 178.36 84.4347C238.09 90.5585 291.64 60.4839 347.26 43.7771C377.46 34.7118 406.26 37.3183 434.35 51.628C456.78 63.0277 482.35 79.8183 495 103.172V125.616H-705Z" fill="#FC4C69"/>
<path d="M-705 125.616V119.722C-555.07 63.8546 -390.91 50.9581 -229.17 81.0535C-186.17 89.0511 -144.94 102.115 -101.56 108.752C-42.56 117.786 10.92 95.939 64 71.6952C122.93 44.782 181 25.9187 246.2 31.4039C332.73 38.7315 418.66 79.253 495 120.183V125.616H-705Z" fill="#FC4C69"/>
</g>
<defs>
<clipPath id="clip0_5_188">
<rect width="1200" height="125.616" fill="white" transform="matrix(1 0 0 -1 -705 125.616)"/>
</clipPath>
</defs>
</svg>
