<svg width="2170" height="217" viewBox="0 0 2170 217" fill="none" xmlns="http://www.w3.org/2000/svg">
<path opacity="0.25" d="M0 217V133.292C86.4202 93.1472 187.325 75.1182 285.717 82.6589C412.951 92.3697 532.247 142.895 659.68 150.471C793.207 158.356 926.481 119.947 1054.26 86.7096C1179.52 54.1596 1304.35 41.7183 1432.92 63.0566C1498.29 73.9066 1559.24 95.3173 1621.8 116.113C1789.33 171.792 2012.67 242.841 2170 122.117V217H0Z" fill="#FC4C69"/>
<path opacity="0.5" d="M0 217V188.41C23.5083 150.236 49.9823 114.178 86.2394 86.7096C179.766 15.7867 298.375 16.275 406.115 51.3928C462.445 69.7474 514.778 98.5361 568.269 123.365C642.266 157.723 721.489 206.548 804.853 213.184C870.423 218.338 933.064 196.15 983.155 156.113C1040.61 110.2 1095.85 43.9968 1170.55 24.1051C1243.68 4.59317 1317.66 36.2028 1385.98 68.0114C1454.3 99.82 1521.89 138.536 1597.41 145.86C1705.42 156.439 1802.26 104.486 1902.84 75.6245C1957.45 59.9643 2009.53 64.4671 2060.32 89.187C2100.89 108.88 2147.12 137.885 2170 178.229V217H0Z" fill="#FC4C69"/>
<path d="M0 217V206.819C271.123 110.308 567.979 88.0297 860.459 140.019C938.218 153.835 1012.78 176.403 1091.22 187.868C1197.91 203.474 1294.62 165.734 1390.61 123.853C1497.17 77.3605 1602.18 44.7743 1720.09 54.25C1876.56 66.9083 2031.95 136.909 2170 207.615V217H0Z" fill="#FC4C69"/>
</svg>
